<svg width="41" height="41" viewBox="0 0 41 41" fill="none" xmlns="http://www.w3.org/2000/svg">
<mask id="mask0_201_655" style="mask-type:alpha" maskUnits="userSpaceOnUse" x="0" y="0" width="41" height="41">
<rect x="0.859375" y="0.5" width="40" height="40" fill="#D9D9D9"/>
</mask>
<g mask="url(#mask0_201_655)">
<path d="M5.85942 33.8333C5.38719 33.8333 4.99136 33.6736 4.67192 33.3542C4.35247 33.0347 4.19275 32.6389 4.19275 32.1667C4.19275 31.8889 4.2483 31.6319 4.35942 31.3958C4.47053 31.1597 4.63719 30.9722 4.85942 30.8333L19.1927 20.0833V17.1667C19.1927 16.6944 19.3594 16.2986 19.6927 15.9792C20.0261 15.6597 20.4289 15.5 20.9011 15.5C21.5955 15.5 22.1789 15.25 22.6511 14.75C23.1233 14.25 23.3594 13.6528 23.3594 12.9583C23.3594 12.2639 23.1164 11.6805 22.6302 11.2083C22.1441 10.7361 21.5539 10.5 20.8594 10.5C20.165 10.5 19.5747 10.743 19.0886 11.2292C18.6025 11.7153 18.3594 12.3055 18.3594 13H15.0261C15.0261 11.3889 15.5955 10.0139 16.7344 8.87499C17.8733 7.7361 19.2483 7.16666 20.8594 7.16666C22.4705 7.16666 23.8455 7.72916 24.9844 8.85416C26.1233 9.97916 26.6928 11.3472 26.6928 12.9583C26.6928 14.2639 26.3108 15.4305 25.5469 16.4583C24.783 17.4861 23.7761 18.1944 22.5261 18.5833V20.0833L36.8594 30.8333C37.0816 30.9722 37.2483 31.1597 37.3594 31.3958C37.4705 31.6319 37.5261 31.8889 37.5261 32.1667C37.5261 32.6389 37.3664 33.0347 37.0469 33.3542C36.7275 33.6736 36.3316 33.8333 35.8594 33.8333H5.85942ZM10.8594 30.5H30.8594L20.8594 23L10.8594 30.5Z" fill="black"/>
</g>
</svg>
